<?xml version="1.0" encoding="UTF-8" standalone="no"?>
<!-- Generator: Adobe Illustrator 17.0.0, SVG Export Plug-In . SVG Version: 6.00 Build 0)  -->

<svg
   xmlns:dc="http://purl.org/dc/elements/1.1/"
   xmlns:cc="http://creativecommons.org/ns#"
   xmlns:rdf="http://www.w3.org/1999/02/22-rdf-syntax-ns#"
   xmlns:svg="http://www.w3.org/2000/svg"
   xmlns="http://www.w3.org/2000/svg"
   xmlns:sodipodi="http://sodipodi.sourceforge.net/DTD/sodipodi-0.dtd"
   xmlns:inkscape="http://www.inkscape.org/namespaces/inkscape"
   version="1.1"
   id="Layer_1"
   x="0px"
   y="0px"
   width="42px"
   height="42px"
   viewBox="0 0 42 42"
   enable-background="new 0 0 42 42"
   xml:space="preserve"
   inkscape:version="0.91 r13725"
   sodipodi:docname="SolrInput.svg"><metadata
     id="metadata4218"><rdf:RDF><cc:Work
         rdf:about=""><dc:format>image/svg+xml</dc:format><dc:type
           rdf:resource="http://purl.org/dc/dcmitype/StillImage" /><dc:title /></cc:Work></rdf:RDF></metadata><defs
     id="defs4216" /><sodipodi:namedview
     pagecolor="#ffffff"
     bordercolor="#666666"
     borderopacity="1"
     objecttolerance="10"
     gridtolerance="10"
     guidetolerance="10"
     inkscape:pageopacity="0"
     inkscape:pageshadow="2"
     inkscape:window-width="1500"
     inkscape:window-height="774"
     id="namedview4214"
     showgrid="false"
     inkscape:zoom="5.6190476"
     inkscape:cx="15.75"
     inkscape:cy="21"
     inkscape:window-x="2119"
     inkscape:window-y="159"
     inkscape:window-maximized="0"
     inkscape:current-layer="Layer_1" /><polygon
     style="fill:#3d6480"
     id="polygon4202"
     points="31.587,30.927 30.243,32.27 35.47,37.497 32.323,37.497 32.323,39.397 38.713,39.394 38.713,33.069 36.813,33.069 36.813,36.152 " /><path
     style="fill:#dbf3db"
     inkscape:connector-curvature="0"
     id="path4204"
     d="m 25.229,13.486 0,-4.258 -13.38,0 0,24.412 11.019,0 6.657,-6.657 -0.039,-13.497 -4.257,0 z m -8.216,10.648 -1.286,-2.008 -1.279,2.008 -0.974,0 1.75,-2.738 -1.694,-2.661 0.972,0 1.226,1.93 1.232,-1.93 0.973,0 -1.704,2.661 1.759,2.738 -0.975,0 z m 5.885,0 -0.091,-3.749 -1.152,3.08 -1.054,0 -1.153,-3.08 -0.09,3.749 -0.864,0 0.187,-5.399 1.028,0 1.419,3.807 1.42,-3.807 1.027,0 0.187,5.399 -0.864,0 z m 5.023,0 -3.135,0 0,-5.399 0.886,0 0,4.584 2.249,0 0,0.815 z" /><polygon
     style="fill:#3d6480"
     id="polygon4206"
     points="26.928,11.787 26.928,9.24 25.217,7.529 10.15,7.529 10.15,35.339 21.168,35.339 22.867,33.64 11.849,33.64 11.849,9.228 25.229,9.228 25.229,13.486 29.486,13.486 29.524,26.983 31.219,25.288 31.186,13.498 29.475,11.787 " /><path
     style="fill:#dbf3db;fill-opacity:1"
     d="m 18.544087,21.462978 0.05341,-2.669758 0.574384,0 c 0.56256,0 0.586735,0.03389 1.174391,1.646187 0.695905,1.909296 0.820226,2.099837 0.998674,1.530626 0.07213,-0.230086 0.367395,-1.038995 0.656139,-1.797575 0.480016,-1.261088 0.56713,-1.379238 1.01693,-1.379238 0.48829,0 0.492791,0.0109 0.606237,1.468221 0.06286,0.807521 0.114774,2.008792 0.11536,2.669491 0.001,1.158454 -0.01457,1.201271 -0.437623,1.201271 -0.434443,0 -0.43918,-0.01765 -0.489406,-1.824152 l -0.05072,-1.824153 -0.530845,1.468221 c -0.512687,1.417998 -0.550116,1.46822 -1.094232,1.46822 -0.540424,0 -0.584073,-0.05622 -1.07085,-1.379237 l -0.507462,-1.379238 -0.04377,1.15678 c -0.07215,1.907012 -0.183124,2.313521 -0.631673,2.313826 -0.389449,2.67e-4 -0.391963,-0.01954 -0.33895,-2.669492 z"
     id="path4768"
     inkscape:connector-curvature="0" /><path
     style="fill:#dbf3db;fill-opacity:1"
     d=""
     id="path4770"
     inkscape:connector-curvature="0" /><path
     style="fill:#dbf3db;fill-opacity:1"
     d="m 11.994915,21.462712 0,-12.1016951 6.584746,0 6.584746,0 0,2.1355931 0,2.135593 2.135593,0 2.135593,0 0,6.720025 0,6.720023 -3.249638,3.246079 -3.249639,3.246077 -5.4707,0 -5.470701,0 0,-12.101695 z m 3.042334,1.779661 c 0.301135,-0.489407 0.613864,-0.889831 0.694954,-0.889831 0.08109,0 0.39382,0.400424 0.694955,0.889831 0.422048,0.685915 0.649852,0.88983 0.994078,0.88983 0.569572,0 0.560864,-0.09583 -0.09703,-1.067796 -1.067629,-1.57731 -1.087903,-1.651512 -0.636823,-2.330773 0.221215,-0.333117 0.583837,-0.905986 0.805826,-1.273041 l 0.403617,-0.667373 -0.503921,0.0032 c -0.408209,0.0026 -0.616578,0.175439 -1.097046,0.91003 l -0.593124,0.906832 -0.559634,-0.91003 c -0.462113,-0.751449 -0.648148,-0.91003 -1.067577,-0.91003 l -0.507943,0 0.403616,0.667373 c 0.22199,0.367055 0.584913,0.940368 0.806497,1.274028 0.45655,0.687471 0.454782,0.693637 -0.680851,2.374277 l -0.691461,1.023305 0.542174,0 c 0.458963,0 0.626206,-0.136568 1.089693,-0.88983 z m 4.432243,0.711864 c 0,-0.09788 -0.03532,-0.177966 -0.07848,-0.177966 -0.04316,0 -0.127975,0.08009 -0.188469,0.177966 -0.06049,0.09788 -0.02518,0.177966 0.07848,0.177966 0.103658,0 0.18847,-0.08008 0.18847,-0.177966 z m 8.510259,-0.222457 c -0.05108,-0.359646 -0.170142,-0.40582 -1.169158,-0.453408 l -1.112288,-0.05298 0,-2.216084 0,-2.216085 -0.444915,0 -0.444915,0 0,2.669492 0,2.669491 1.614072,0 c 1.572059,0 1.612593,-0.01042 1.557204,-0.400423 z"
     id="path4772"
     inkscape:connector-curvature="0" /><path
     style="fill:#dbf3db;fill-opacity:1"
     d="m 24.808475,21.462712 0,-2.669492 0.444915,0 0.444915,0 0,2.21574 0,2.215739 1.067797,0.120807 c 0.881528,0.09973 1.067796,0.178887 1.067796,0.453752 0,0.29917 -0.153457,0.332945 -1.512712,0.332945 l -1.512711,0 0,-2.669491 z"
     id="path4774"
     inkscape:connector-curvature="0" /><path
     style="fill:#ffffff;fill-opacity:1"
     d="m 13.84286,23.656717 c 0.148383,-0.27683 0.513717,-0.863709 0.811854,-1.304175 0.298137,-0.440466 0.54241,-0.866908 0.542829,-0.94765 4.19e-4,-0.08074 -0.358004,-0.701399 -0.796495,-1.379238 -0.792562,-1.225175 -0.794615,-1.232434 -0.348582,-1.232434 0.346014,0 0.575243,0.203603 1.001825,0.889831 0.304232,0.489407 0.603997,0.88983 0.666143,0.88983 0.06215,0 0.26145,-0.251316 0.442897,-0.558481 0.470516,-0.79652 0.938214,-1.22118 1.344943,-1.22118 0.308315,0 0.25272,0.154002 -0.444915,1.232434 -0.438491,0.677839 -0.797002,1.298496 -0.796691,1.379238 3.12e-4,0.08074 0.320396,0.627311 0.711298,1.2146 0.390902,0.587288 0.710987,1.173774 0.711298,1.303303 0.0012,0.497075 -0.643078,0.07734 -1.242288,-0.809335 -0.344184,-0.509303 -0.665832,-0.926005 -0.714773,-0.926005 -0.04894,0 -0.370758,0.417547 -0.715151,0.927883 -0.396875,0.588107 -0.775902,0.949272 -1.035073,0.986294 -0.396124,0.05659 -0.400473,0.04268 -0.139119,-0.444915 z"
     id="path4776"
     inkscape:connector-curvature="0" /><path
     style="fill:#ffffff;fill-opacity:1"
     d="m 11.994915,21.462712 0,-12.1016951 6.584746,0 6.584746,0 0,2.1355931 0,2.135593 2.135593,0 2.135593,0 0,6.720025 0,6.720023 -3.249638,3.246079 -3.249639,3.246077 -5.4707,0 -5.470701,0 0,-12.101695 z m 3.025424,1.779661 c 0.314051,-0.489407 0.635385,-0.889831 0.714075,-0.889831 0.07869,0 0.370659,0.362915 0.648821,0.806478 0.449046,0.716059 1.159122,1.179979 1.414774,0.924327 0.05038,-0.05038 -0.271399,-0.674906 -0.715066,-1.387834 l -0.806669,-1.296232 0.384016,-0.635657 c 0.211209,-0.349612 0.571096,-0.915955 0.799749,-1.258539 l 0.415734,-0.622882 -0.398594,-0.06194 c -0.393007,-0.06107 -0.719472,0.217801 -1.433535,1.22454 l -0.311441,0.439092 -0.31144,-0.439092 C 14.7067,19.038067 14.380234,18.759197 13.987227,18.820266 l -0.398593,0.06194 0.415734,0.622882 c 0.228653,0.342584 0.590028,0.911334 0.803055,1.263888 l 0.387321,0.641006 -0.795259,1.227638 c -0.437392,0.6752 -0.796972,1.287701 -0.799067,1.361112 -0.0021,0.07341 0.188055,0.133474 0.422555,0.133474 0.316858,0 0.573017,-0.22854 0.997366,-0.88983 z m 12.735053,0.254968 c -0.19,-0.140232 -0.430254,-0.249548 -0.533898,-0.242923 -0.103644,0.0066 -0.0049,0.100422 0.219327,0.20844 0.265942,0.128086 0.370598,0.294119 0.300897,0.477362 -0.08832,0.232196 -0.06643,0.240272 0.126128,0.04653 0.192161,-0.193346 0.17245,-0.279129 -0.112454,-0.489407 z"
     id="path4778"
     inkscape:connector-curvature="0" /><text
     xml:space="preserve"
     style="font-style:normal;font-weight:normal;font-size:11.25px;line-height:125%;font-family:sans-serif;letter-spacing:0px;word-spacing:0px;fill:#000000;fill-opacity:1;stroke:none;stroke-width:1px;stroke-linecap:butt;stroke-linejoin:miter;stroke-opacity:1"
     x="16.550846"
     y="25.805084"
     id="text4780"
     sodipodi:linespacing="125%"><tspan
       sodipodi:role="line"
       id="tspan4782"
       x="16.550846"
       y="25.805084" /></text>
<text
     xml:space="preserve"
     style="font-style:normal;font-weight:normal;font-size:11.25px;line-height:125%;font-family:sans-serif;letter-spacing:0px;word-spacing:0px;fill:#000000;fill-opacity:1;stroke:none;stroke-width:1px;stroke-linecap:butt;stroke-linejoin:miter;stroke-opacity:1"
     x="15.127119"
     y="27.40678"
     id="text4784"
     sodipodi:linespacing="125%"><tspan
       sodipodi:role="line"
       id="tspan4786"
       x="15.127119"
       y="27.40678" /></text>
<text
     xml:space="preserve"
     style="font-style:normal;font-weight:normal;font-size:11.25px;line-height:125%;font-family:sans-serif;letter-spacing:0px;word-spacing:0px;fill:#000000;fill-opacity:1;stroke:none;stroke-width:1px;stroke-linecap:butt;stroke-linejoin:miter;stroke-opacity:1"
     x="16.016949"
     y="26.872881"
     id="text4788"
     sodipodi:linespacing="125%"><tspan
       sodipodi:role="line"
       id="tspan4790"
       x="16.016949"
       y="26.872881" /></text>
<text
     xml:space="preserve"
     style="font-style:normal;font-weight:normal;font-size:15px;line-height:125%;font-family:sans-serif;letter-spacing:0px;word-spacing:0px;fill:#000000;fill-opacity:1;stroke:none;stroke-width:1px;stroke-linecap:butt;stroke-linejoin:miter;stroke-opacity:1"
     x="15.483051"
     y="28.29661"
     id="text4157"
     sodipodi:linespacing="125%"><tspan
       sodipodi:role="line"
       id="tspan4159"
       x="15.483051"
       y="28.29661" /></text>
<text
     xml:space="preserve"
     style="font-style:normal;font-weight:normal;font-size:15px;line-height:125%;font-family:sans-serif;letter-spacing:0px;word-spacing:0px;fill:#000000;fill-opacity:1;stroke:none;stroke-width:1px;stroke-linecap:butt;stroke-linejoin:miter;stroke-opacity:1"
     x="15.305085"
     y="27.050846"
     id="text4161"
     sodipodi:linespacing="125%"><tspan
       sodipodi:role="line"
       id="tspan4163"
       x="15.305085"
       y="27.050846" /></text>
<text
     xml:space="preserve"
     style="font-style:normal;font-weight:normal;font-size:13.75px;line-height:125%;font-family:sans-serif;letter-spacing:0px;word-spacing:0px;fill:#000000;fill-opacity:1;stroke:none;stroke-width:1px;stroke-linecap:butt;stroke-linejoin:miter;stroke-opacity:1"
     x="14.415254"
     y="27.584745"
     id="text4165"
     sodipodi:linespacing="125%"><tspan
       sodipodi:role="line"
       id="tspan4167"
       x="14.415254"
       y="27.584745" /></text>
<text
     xml:space="preserve"
     style="font-style:normal;font-weight:normal;font-size:15px;line-height:125%;font-family:sans-serif;letter-spacing:0px;word-spacing:0px;fill:#000000;fill-opacity:1;stroke:none;stroke-width:1px;stroke-linecap:butt;stroke-linejoin:miter;stroke-opacity:1"
     x="15.127119"
     y="28.118645"
     id="text4169"
     sodipodi:linespacing="125%"><tspan
       sodipodi:role="line"
       id="tspan4171"
       x="15.127119"
       y="28.118645" /></text>
<text
     xml:space="preserve"
     style="font-style:normal;font-weight:normal;font-size:15px;line-height:125%;font-family:sans-serif;letter-spacing:0px;word-spacing:0px;fill:#000000;fill-opacity:1;stroke:none;stroke-width:1px;stroke-linecap:butt;stroke-linejoin:miter;stroke-opacity:1"
     x="15.661017"
     y="26.338984"
     id="text4173"
     sodipodi:linespacing="125%"><tspan
       sodipodi:role="line"
       id="tspan4175"
       x="15.661017"
       y="26.338984" /></text>
<text
     xml:space="preserve"
     style="font-style:normal;font-weight:normal;font-size:15px;line-height:125%;font-family:sans-serif;letter-spacing:0px;word-spacing:0px;fill:#000000;fill-opacity:1;stroke:none;stroke-width:1px;stroke-linecap:butt;stroke-linejoin:miter;stroke-opacity:1"
     x="15.127119"
     y="28.652542"
     id="text4177"
     sodipodi:linespacing="125%"><tspan
       sodipodi:role="line"
       id="tspan4179"
       x="15.127119"
       y="28.652542" /></text>
<text
     xml:space="preserve"
     style="font-style:normal;font-weight:normal;font-size:15px;line-height:125%;font-family:sans-serif;letter-spacing:0px;word-spacing:0px;fill:#000000;fill-opacity:1;stroke:none;stroke-width:1px;stroke-linecap:butt;stroke-linejoin:miter;stroke-opacity:1"
     x="15.483051"
     y="27.762712"
     id="text4185"
     sodipodi:linespacing="125%"><tspan
       sodipodi:role="line"
       id="tspan4187"
       x="15.483051"
       y="27.762712" /></text>
<text
     xml:space="preserve"
     style="font-style:normal;font-weight:normal;font-size:15px;line-height:125%;font-family:sans-serif;letter-spacing:0px;word-spacing:0px;fill:#000000;fill-opacity:1;stroke:none;stroke-width:1px;stroke-linecap:butt;stroke-linejoin:miter;stroke-opacity:1"
     x="13.70339"
     y="28.652542"
     id="text4189"
     sodipodi:linespacing="125%"><tspan
       sodipodi:role="line"
       id="tspan4191"
       x="13.70339"
       y="28.652542" /></text>
<text
     xml:space="preserve"
     style="font-style:normal;font-weight:normal;font-size:15px;line-height:125%;font-family:sans-serif;letter-spacing:0px;word-spacing:0px;fill:#000000;fill-opacity:1;stroke:none;stroke-width:1px;stroke-linecap:butt;stroke-linejoin:miter;stroke-opacity:1"
     x="14.949153"
     y="27.584745"
     id="text4193"
     sodipodi:linespacing="125%"><tspan
       sodipodi:role="line"
       id="tspan4195"
       x="14.949153"
       y="27.584745" /></text>
<text
     xml:space="preserve"
     style="font-style:normal;font-weight:normal;font-size:15px;line-height:125%;font-family:sans-serif;letter-spacing:0px;word-spacing:0px;fill:#000000;fill-opacity:1;stroke:none;stroke-width:1px;stroke-linecap:butt;stroke-linejoin:miter;stroke-opacity:1"
     x="14.59322"
     y="28.29661"
     id="text4201"
     sodipodi:linespacing="125%"><tspan
       sodipodi:role="line"
       id="tspan4203"
       x="14.59322"
       y="28.29661" /></text>
<text
     xml:space="preserve"
     style="font-style:normal;font-weight:normal;font-size:15px;line-height:125%;font-family:sans-serif;letter-spacing:0px;word-spacing:0px;fill:#3d6480;fill-opacity:1;stroke:none;stroke-width:1px;stroke-linecap:butt;stroke-linejoin:miter;stroke-opacity:1;-inkscape-font-specification:'sans-serif, Normal';font-stretch:normal;font-variant:normal;text-anchor:start;text-align:start;writing-mode:lr;"
     x="14.771186"
     y="26.872881"
     id="text4205"
     sodipodi:linespacing="125%"><tspan
       sodipodi:role="line"
       id="tspan4169">S</tspan></text>
</svg>